<svg xmlns="http://www.w3.org/2000/svg" xmlns:xlink="http://www.w3.org/1999/xlink" viewBox="0 0 528.6 108.74"><defs><radialGradient id="radial-gradient" cx="618.05" cy="223.43" r="12.33" gradientTransform="translate(-433.52 -272.45) scale(1.46 1.45)" gradientUnits="userSpaceOnUse"><stop offset="0" stop-color="#fff" stop-opacity="0"/><stop offset="0.02" stop-color="#e4f2f8" stop-opacity="0.13"/><stop offset="0.04" stop-color="#bce0ee" stop-opacity="0.34"/><stop offset="0.07" stop-color="#99cfe5" stop-opacity="0.52"/><stop offset="0.1" stop-color="#7bc1de" stop-opacity="0.67"/><stop offset="0.14" stop-color="#63b6d8" stop-opacity="0.79"/><stop offset="0.18" stop-color="#50add3" stop-opacity="0.88"/><stop offset="0.22" stop-color="#43a7d0" stop-opacity="0.95"/><stop offset="0.28" stop-color="#3ba3ce" stop-opacity="0.99"/><stop offset="0.38" stop-color="#39a2cd"/><stop offset="0.49" stop-color="#379ec8"/><stop offset="0.61" stop-color="#3191bb"/><stop offset="0.73" stop-color="#277ba4"/><stop offset="0.86" stop-color="#1a5e85"/><stop offset="0.96" stop-color="#0c4066"/></radialGradient></defs><g id="Layer_2" data-name="Layer 2"><g id="Layer_1-2" data-name="Layer 1"><path d="M419.92,63.16s.08.91,0-.16c-2.77-29.07,16.55-55.81,45.59-60.6C477.15.47,487.75,1.64,496.94,6c23.73,11.23,29.71,37.52,30.16,39.68,0,.08-.19-.84-.18-.8" fill="none" stroke="#1d2d4e" stroke-linecap="round" stroke-linejoin="round" stroke-width="3"/><path d="M469.47,31.26s0-.82-.39-12.91a37.86,37.86,0,0,1-8-6,37.22,37.22,0,0,1-5.71-7.22" fill="none" stroke="#1d2d4e" stroke-linecap="round" stroke-linejoin="round" stroke-width="3"/><path d="M512.32,59.19a45.59,45.59,0,0,0-83.05-1.26" fill="none" stroke="#1d2d4e" stroke-linecap="round" stroke-linejoin="round" stroke-width="2"/><path d="M443.2,25.56a53.25,53.25,0,0,0-5.49,7.33,45.48,45.48,0,0,0-4.09,8,35.89,35.89,0,0,0-1.33,4.28c-.37,1.45-.76,2.89-1.17,4.33-.86,2.87-1.6,5.8-2.65,8.8a.17.17,0,0,1-.2.1.15.15,0,0,1-.1-.12,27.27,27.27,0,0,1,0-9.45A31.35,31.35,0,0,1,431.43,40,47.19,47.19,0,0,1,436.49,32a47.77,47.77,0,0,1,6.5-6.68.17.17,0,0,1,.22,0A.17.17,0,0,1,443.2,25.56Z" fill="#1d2d4e"/><path d="M487.05,107.74a6.08,6.08,0,0,1-3.42-2,5.93,5.93,0,0,1-1.35-3c-.48-5-.86-10.26-1.11-15.73q-.36-8-.32-15.27c-.08-.36-.84-3.49-3.49-4.41a4.69,4.69,0,0,0-1.75-.23,44.39,44.39,0,0,1-15.09,1.65,42.74,42.74,0,0,1-14.88-3.62,40,40,0,0,1-9.93-6.53" fill="none" stroke="#1d2d4e" stroke-linecap="round" stroke-linejoin="round" stroke-width="2"/><path d="M476.68,17.34a6.79,6.79,0,0,0-1.91,4,6.62,6.62,0,0,0,.22,2.56,2,2,0,0,0,2.1,1.48,9.45,9.45,0,0,1,2.21.09,9.85,9.85,0,0,1,2.27.66,2.12,2.12,0,0,1,.62.44,17.5,17.5,0,0,0,2.6,2.2,17.28,17.28,0,0,0,3.53,1.9,2.06,2.06,0,0,0,1.15.1A18.45,18.45,0,0,1,498,31c.5.14,1,.29,1.43.46a2,2,0,0,1,.95.74c.32.47.72,1,1.19,1.63a33.71,33.71,0,0,0,5,5.07,33.79,33.79,0,0,0,10.14,5.55,5.35,5.35,0,0,1,2.74,1.3c2.55,2.36,1.13,7.23.59,9.12-1.37,4.87-3.68,6.92-7.86,12.71-2.68,3.71-1.12,2-7.4,11.57-6.64,10.12-7.76,11.07-9.77,15.34-2.6,5.52-3.89,8.28-4,9-.16,1.17-.3,3.37-1.74,4.15a3.11,3.11,0,0,1-2.27.12" fill="none" stroke="#1d2d4e" stroke-linecap="round" stroke-linejoin="round"/><ellipse cx="469.08" cy="50.56" rx="18.01" ry="17.83" fill="url(#radial-gradient)"/><path d="M468.91,47.24a4.36,4.36,0,0,1,.56-2.13,5.87,5.87,0,0,0-1.83-.33,6.66,6.66,0,1,0,6.15,6.64c0-.05,0-.1,0-.15a3.65,3.65,0,0,1-1,.15A4,4,0,0,1,468.91,47.24Z"/><path d="M476.66,47.24a4,4,0,0,0-3.87-4.19,3.8,3.8,0,0,0-3.32,2.06,4.36,4.36,0,0,0-.56,2.13,4,4,0,0,0,3.88,4.18,3.65,3.65,0,0,0,1-.15A4.13,4.13,0,0,0,476.66,47.24Z" fill="#fff"/><path d="M0,63.35l8.41-.44q.16,4,1.37,5.42,1.94,2.3,7.15,2.29,4.33,0,6.27-1.55a4.67,4.67,0,0,0,1.93-3.75,4,4,0,0,0-1.58-3.23A30.76,30.76,0,0,0,17.45,59a58,58,0,0,1-7.29-3.62,10.62,10.62,0,0,1-3.62-3.77,10.72,10.72,0,0,1-1.32-5.42,11.63,11.63,0,0,1,3.93-9c2.62-2.38,6.4-3.57,11.37-3.57s8.94,1.18,11.7,3.54a13.1,13.1,0,0,1,4.56,9.44L28.31,47a6.91,6.91,0,0,0-2.23-4.72,8.41,8.41,0,0,0-5.62-1.64c-2.44,0-4.19.43-5.23,1.29a4,4,0,0,0-1.57,3.25,3.8,3.8,0,0,0,1.44,3,29.38,29.38,0,0,0,6.35,3.37q7.41,3.18,9.44,5.18a10,10,0,0,1,3,7.53A12.56,12.56,0,0,1,29.41,74q-4.5,4-12.53,4a22.82,22.82,0,0,1-9.59-1.86A11.39,11.39,0,0,1,1.56,71,15.75,15.75,0,0,1,0,63.35Z" fill="#1e335c"/><path d="M44.35,46.15h8.4L48.92,64.58a29.42,29.42,0,0,0-.71,4.13,3.15,3.15,0,0,0,1,2.32,3.51,3.51,0,0,0,2.55,1,6.09,6.09,0,0,0,2.2-.42,9.2,9.2,0,0,0,2.22-1.29,11.64,11.64,0,0,0,2-2,12.17,12.17,0,0,0,1.7-2.93A27.53,27.53,0,0,0,61.13,61l3.11-14.83h8.41L66.14,77.27H58.29l.88-4.22Q54,78,48,78a8.15,8.15,0,0,1-6-2.2,8,8,0,0,1-2.19-5.89,40.14,40.14,0,0,1,1-6.41Z" fill="#1e335c"/><path d="M102.57,77.27h-8l.71-3.37a15.82,15.82,0,0,1-4.5,3.15,12.63,12.63,0,0,1-5,1A10.09,10.09,0,0,1,78,74.7Q75,71.42,75,65a23,23,0,0,1,4.22-13.5,13,13,0,0,1,11.16-6,10.39,10.39,0,0,1,9.41,5l3.37-16.08h8.41ZM83.15,64.61a7.55,7.55,0,0,0,1.68,5.22A5.36,5.36,0,0,0,89,71.7a6.71,6.71,0,0,0,4.26-1.57,10.55,10.55,0,0,0,3.16-4.79,17.6,17.6,0,0,0,1.19-6.18,8,8,0,0,0-1.82-5.45,5.45,5.45,0,0,0-4.19-2.08q-3.69,0-6.06,4.1A17.48,17.48,0,0,0,83.15,64.61Z" fill="#1e335c"/><path d="M121.63,55l-8.21-.7a12.37,12.37,0,0,1,4.91-6.5c2.33-1.57,5.43-2.35,9.27-2.35q6,0,8.88,2.42a7.45,7.45,0,0,1,2.87,5.9,18.74,18.74,0,0,1-.25,3q-.24,1.59-1.74,8.32a42.75,42.75,0,0,0-1.23,7.79,16,16,0,0,0,.7,4.43h-8.17a16.42,16.42,0,0,1-.62-3.52,12.74,12.74,0,0,1-4.25,3.15A11.55,11.55,0,0,1,119,78a8.63,8.63,0,0,1-6.39-2.53A8.86,8.86,0,0,1,110.05,69a9.45,9.45,0,0,1,2.77-7.12q2.78-2.67,9.89-3.22a39.68,39.68,0,0,0,8-1.21,10.39,10.39,0,0,0,.53-2.81,2.82,2.82,0,0,0-1.09-2.25,4.89,4.89,0,0,0-3.22-.91,6.09,6.09,0,0,0-3.56.92A4.58,4.58,0,0,0,121.63,55Zm8,7.8a19.1,19.1,0,0,1-2,.38c-4.22.5-7,1.25-8.26,2.22A3.4,3.4,0,0,0,118,68.22,3.3,3.3,0,0,0,119,70.69a3.86,3.86,0,0,0,2.78,1,7.41,7.41,0,0,0,3.59-.92,6.43,6.43,0,0,0,2.52-2.37,16.19,16.19,0,0,0,1.48-4.53Z" fill="#21bae3"/><path d="M148.65,46.15h7.91l-.79,3.78q4.64-4.5,9.73-4.51a8.72,8.72,0,0,1,5.42,1.47,6.52,6.52,0,0,1,2.43,4A12.58,12.58,0,0,1,178,47a13.38,13.38,0,0,1,6.27-1.58,8.08,8.08,0,0,1,5.8,2,7,7,0,0,1,2.08,5.28,32.79,32.79,0,0,1-.82,5.56l-4,19h-8.41l4-19c.49-2.38.73-3.73.73-4a2.69,2.69,0,0,0-.77-2,3.25,3.25,0,0,0-2.33-.75q-3.14,0-5.6,3.31-1.78,2.37-3.05,8.41l-3,14.12h-8.4l3.92-18.81a27.84,27.84,0,0,0,.68-4.22,2.66,2.66,0,0,0-.84-2,3.2,3.2,0,0,0-2.3-.79,5.77,5.77,0,0,0-2.84.82,8.4,8.4,0,0,0-2.56,2.25,12.92,12.92,0,0,0-1.89,3.7c-.24.7-.62,2.29-1.15,4.77l-3,14.3h-8.41Z" fill="#21bae3"/><path d="M225.33,64.32H204.24c0,.33,0,.58,0,.76a7.07,7.07,0,0,0,1.77,5A5.68,5.68,0,0,0,210.3,72q4.2,0,6.54-4.33l7.53,1.26a15.85,15.85,0,0,1-5.88,6.81A15.4,15.4,0,0,1,210.25,78a13.71,13.71,0,0,1-10.2-4,14.28,14.28,0,0,1-3.93-10.5,19.14,19.14,0,0,1,3.55-11.37q4.83-6.73,13.8-6.74A12,12,0,0,1,222.55,49q3.38,3.54,3.37,9.89A23.48,23.48,0,0,1,225.33,64.32Zm-7.09-5.13c0-.37,0-.65,0-.85a7.51,7.51,0,0,0-1.55-5.18,5.28,5.28,0,0,0-4.16-1.73,6.58,6.58,0,0,0-4.67,2,10.46,10.46,0,0,0-2.8,5.8Z" fill="#21bae3"/><path d="M233.72,46.15h7.86l-1.26,6q4.4-6.76,9.52-6.77a9.82,9.82,0,0,1,3.89.91l-3.22,6.89a7,7,0,0,0-2.43-.41,7.42,7.42,0,0,0-4.41,1.64,11,11,0,0,0-3.5,4.38,43.43,43.43,0,0,0-2.49,8.68l-2.05,9.76h-8.41Z" fill="#21bae3"/><path d="M256.82,46.15h8.41l-6.5,31.12h-8.41Zm2.46-11.83h8.41l-1.58,7.62H257.7Z" fill="#21bae3"/><path d="M287.36,65.55l8.18,1.32a17.27,17.27,0,0,1-6,8.29A15.34,15.34,0,0,1,280.39,78q-5.94,0-9.43-3.54t-3.49-9.76a22.29,22.29,0,0,1,2.11-9.58,16.15,16.15,0,0,1,6.36-7.1,17.51,17.51,0,0,1,9.31-2.6q5.52,0,8.79,2.87a10.89,10.89,0,0,1,3.69,7.56l-8,.85a6.05,6.05,0,0,0-1.6-3.84,4.77,4.77,0,0,0-3.41-1.23,6.84,6.84,0,0,0-4.54,1.82A11.43,11.43,0,0,0,277,58.88a23,23,0,0,0-1.13,6.79,6.1,6.1,0,0,0,1.35,4.24,4.34,4.34,0,0,0,3.37,1.5,6.24,6.24,0,0,0,3.89-1.47A9.41,9.41,0,0,0,287.36,65.55Z" fill="#21bae3"/><path d="M310.78,55l-8.2-.7a12.32,12.32,0,0,1,4.91-6.5q3.5-2.35,9.27-2.35,6,0,8.88,2.42a7.45,7.45,0,0,1,2.87,5.9,20,20,0,0,1-.25,3q-.25,1.59-1.74,8.32a42.75,42.75,0,0,0-1.23,7.79,16,16,0,0,0,.7,4.43h-8.18a16.41,16.41,0,0,1-.61-3.52A12.84,12.84,0,0,1,313,76.9a11.55,11.55,0,0,1-4.83,1.1,8.63,8.63,0,0,1-6.39-2.53A8.86,8.86,0,0,1,299.21,69,9.41,9.41,0,0,1,302,61.83q2.77-2.67,9.89-3.22a39.42,39.42,0,0,0,8-1.21,10,10,0,0,0,.53-2.81,2.81,2.81,0,0,0-1.08-2.25,4.89,4.89,0,0,0-3.22-.91,6.07,6.07,0,0,0-3.56.92A4.65,4.65,0,0,0,310.78,55Zm8,7.8a19.62,19.62,0,0,1-2,.38c-4.22.5-7,1.25-8.26,2.22a3.4,3.4,0,0,0-1.38,2.85,3.27,3.27,0,0,0,1.06,2.47,3.86,3.86,0,0,0,2.78,1,7.43,7.43,0,0,0,3.59-.92,6.43,6.43,0,0,0,2.52-2.37,16.52,16.52,0,0,0,1.48-4.53Z" fill="#21bae3"/><path d="M338.19,46.15h8l-.82,4.05a21.77,21.77,0,0,1,5.58-3.68,13.91,13.91,0,0,1,5.46-1.1,8.18,8.18,0,0,1,6.05,2.2,7.82,7.82,0,0,1,2.21,5.83,37.26,37.26,0,0,1-1,6.21L360,77.27h-8.4L355.3,59.6a40.35,40.35,0,0,0,.82-4.71,3.39,3.39,0,0,0-.95-2.54,3.69,3.69,0,0,0-2.66-.92,7.49,7.49,0,0,0-4.1,1.55,10.85,10.85,0,0,0-3.54,4.1,34.28,34.28,0,0,0-2.11,7.41l-2.67,12.78h-8.41Z" fill="#21bae3"/><path d="M379.36,55l-8.2-.7a12.32,12.32,0,0,1,4.91-6.5q3.49-2.35,9.27-2.35,6,0,8.88,2.42a7.45,7.45,0,0,1,2.87,5.9,20,20,0,0,1-.25,3q-.25,1.59-1.74,8.32a42.75,42.75,0,0,0-1.23,7.79,16,16,0,0,0,.7,4.43h-8.18a16.41,16.41,0,0,1-.61-3.52,12.84,12.84,0,0,1-4.25,3.15A11.55,11.55,0,0,1,376.7,78a8.63,8.63,0,0,1-6.39-2.53A8.86,8.86,0,0,1,367.79,69a9.41,9.41,0,0,1,2.77-7.12q2.78-2.67,9.89-3.22a39.42,39.42,0,0,0,8-1.21,10,10,0,0,0,.53-2.81,2.81,2.81,0,0,0-1.08-2.25,4.89,4.89,0,0,0-3.22-.91,6.07,6.07,0,0,0-3.56.92A4.65,4.65,0,0,0,379.36,55Zm8,7.8a19.62,19.62,0,0,1-2,.38c-4.22.5-7,1.25-8.26,2.22a3.4,3.4,0,0,0-1.38,2.85,3.27,3.27,0,0,0,1.06,2.47,3.86,3.86,0,0,0,2.78,1,7.43,7.43,0,0,0,3.59-.92,6.43,6.43,0,0,0,2.52-2.37,16.52,16.52,0,0,0,1.48-4.53Z" fill="#21bae3"/><path d="M5.75,18.91c0-3.68,1-6.57,3-8.65a10.11,10.11,0,0,1,7.66-3.13A10.6,10.6,0,0,1,21.91,8.6a9.56,9.56,0,0,1,3.76,4.1A13.18,13.18,0,0,1,27,18.65a13.16,13.16,0,0,1-1.36,6,9.37,9.37,0,0,1-3.86,4,11.1,11.1,0,0,1-5.39,1.37,10.47,10.47,0,0,1-5.6-1.52A9.7,9.7,0,0,1,7,24.45,12.46,12.46,0,0,1,5.75,18.91Zm3,.05a8.89,8.89,0,0,0,2.16,6.32,7.08,7.08,0,0,0,5.41,2.3,7.07,7.07,0,0,0,5.46-2.33,9.41,9.41,0,0,0,2.14-6.61A11.37,11.37,0,0,0,23,13.91a7.1,7.1,0,0,0-2.68-3.13,7.22,7.22,0,0,0-4-1.12A7.55,7.55,0,0,0,11,11.8Q8.77,13.95,8.77,19ZM14.5,6.17l2-4.24h3.57L16.75,6.17Z" fill="#1e335c"/><path d="M30,29.72V7.53h8.37a20.37,20.37,0,0,1,3.37.21,6.62,6.62,0,0,1,2.74,1,5.41,5.41,0,0,1,1.78,2.14,6.8,6.8,0,0,1,.67,3,6.84,6.84,0,0,1-1.8,4.79c-1.2,1.3-3.37,2-6.51,2H32.88v9Zm2.93-11.64h5.74a6.06,6.06,0,0,0,4-1.06,3.77,3.77,0,0,0,1.2-3,4,4,0,0,0-.71-2.39,3.32,3.32,0,0,0-1.85-1.31,12.81,12.81,0,0,0-2.74-.19H32.88Z" fill="#1e335c"/><path d="M55.46,29.72V10.15H48.15V7.53H65.74v2.62H58.4V29.72Z" fill="#1e335c"/><path d="M68.45,29.72V7.53h2.93V29.72Z" fill="#1e335c"/><path d="M91.59,21.94l2.93.74A9.87,9.87,0,0,1,91.2,28.2a9.18,9.18,0,0,1-5.86,1.9,10.57,10.57,0,0,1-5.84-1.46,9.16,9.16,0,0,1-3.42-4.23,15.14,15.14,0,0,1-1.17-5.95,13.13,13.13,0,0,1,1.32-6.05A9,9,0,0,1,80,8.49a11,11,0,0,1,5.38-1.34A9,9,0,0,1,91,8.85a8.76,8.76,0,0,1,3.16,4.76l-2.89.69A6.78,6.78,0,0,0,89,10.77a6,6,0,0,0-3.69-1.11A7.17,7.17,0,0,0,81,10.89a6.47,6.47,0,0,0-2.41,3.29,13.39,13.39,0,0,0-.7,4.26,13.48,13.48,0,0,0,.83,4.94,6.15,6.15,0,0,0,2.56,3.16,7.16,7.16,0,0,0,3.77,1,6.3,6.3,0,0,0,4.18-1.42A7.31,7.31,0,0,0,91.59,21.94Z" fill="#1e335c"/><path d="M94.9,29.72l8.52-22.19h3.16l9.09,22.19h-3.35L109.73,23h-9.28L98,29.72Zm6.4-9.11h7.52l-2.31-6.15c-.71-1.87-1.23-3.4-1.58-4.6a28.54,28.54,0,0,1-1.19,4.24Z" fill="#1e335c"/><rect x="1.46" y="87.22" width="398.57" height="16.16" fill="#1e3360"/><path d="M109.79,100.21v-10h2l4.1,6.69V90.19h1.88v10h-2l-4-6.54v6.54Z" fill="#fff"/><path d="M124.63,100.21V99.12a2.72,2.72,0,0,1-1,.92,3,3,0,0,1-1.36.33,2.63,2.63,0,0,1-1.32-.32,1.93,1.93,0,0,1-.84-.9,4.09,4.09,0,0,1-.26-1.61V93h1.92v3.34a9.09,9.09,0,0,0,.11,1.87,1,1,0,0,0,.39.55,1.19,1.19,0,0,0,.71.2,1.52,1.52,0,0,0,.88-.27,1.32,1.32,0,0,0,.53-.67,7.66,7.66,0,0,0,.14-2V93h1.93v7.26Z" fill="#fff"/><path d="M132.6,97.9l1.91.32a3.14,3.14,0,0,1-1.17,1.6,3.38,3.38,0,0,1-2,.55,3.25,3.25,0,0,1-2.8-1.23,4.17,4.17,0,0,1-.72-2.51,4,4,0,0,1,.94-2.82,3.12,3.12,0,0,1,2.39-1,3.22,3.22,0,0,1,2.56,1.07,4.72,4.72,0,0,1,.89,3.27H129.8a1.94,1.94,0,0,0,.46,1.33,1.46,1.46,0,0,0,1.11.48,1.14,1.14,0,0,0,.76-.25A1.52,1.52,0,0,0,132.6,97.9Zm.1-1.94a1.8,1.8,0,0,0-.43-1.27,1.3,1.3,0,0,0-1-.43,1.34,1.34,0,0,0-1,.45,1.78,1.78,0,0,0-.41,1.25Z" fill="#fff"/><path d="M135.49,98.14l1.92-.3a1.48,1.48,0,0,0,.5.86A1.73,1.73,0,0,0,139,99a1.85,1.85,0,0,0,1.12-.28.6.6,0,0,0,.25-.51.49.49,0,0,0-.14-.36,1.42,1.42,0,0,0-.64-.25,10.8,10.8,0,0,1-2.95-.94,1.88,1.88,0,0,1-.86-1.64,2,2,0,0,1,.75-1.58,3.46,3.46,0,0,1,2.31-.64,4,4,0,0,1,2.21.48,2.42,2.42,0,0,1,1,1.44l-1.81.33a1.12,1.12,0,0,0-.44-.65,1.64,1.64,0,0,0-.93-.22,2.07,2.07,0,0,0-1.08.21.45.45,0,0,0-.22.39.42.42,0,0,0,.19.35,7.39,7.39,0,0,0,1.79.54,5.3,5.3,0,0,1,2.15.85,1.78,1.78,0,0,1,.6,1.43,2.19,2.19,0,0,1-.84,1.72,3.7,3.7,0,0,1-2.46.71,4,4,0,0,1-2.35-.6A2.71,2.71,0,0,1,135.49,98.14Z" fill="#fff"/><path d="M147.26,93v1.53H146v2.93a6.33,6.33,0,0,0,0,1,.42.42,0,0,0,.17.25.58.58,0,0,0,.33.09,2.59,2.59,0,0,0,.77-.18l.16,1.49a3.85,3.85,0,0,1-1.52.28,2.33,2.33,0,0,1-.93-.17,1.41,1.41,0,0,1-.61-.45,1.84,1.84,0,0,1-.27-.75,7.74,7.74,0,0,1-.07-1.35V94.48h-.88V93H144V91.51L146,90.39V93Z" fill="#fff"/><path d="M150.42,100.21H148.5V93h1.79v1a3.09,3.09,0,0,1,.82-1,1.46,1.46,0,0,1,.83-.23,2.41,2.41,0,0,1,1.26.36l-.59,1.67a1.65,1.65,0,0,0-.9-.31,1.08,1.08,0,0,0-.69.22,1.62,1.62,0,0,0-.44.8,12,12,0,0,0-.16,2.44Z" fill="#fff"/><path d="M155.45,95.17l-1.74-.32a2.74,2.74,0,0,1,1-1.56,3.76,3.76,0,0,1,2.13-.5,4.68,4.68,0,0,1,1.92.3,1.88,1.88,0,0,1,.88.77,3.82,3.82,0,0,1,.26,1.72l0,2.24a8.13,8.13,0,0,0,.09,1.42,4.1,4.1,0,0,0,.35,1h-1.9c-.05-.13-.11-.32-.19-.57a1.13,1.13,0,0,0-.07-.22,3.2,3.2,0,0,1-1,.71,3,3,0,0,1-1.19.24,2.5,2.5,0,0,1-1.77-.6,2.16,2.16,0,0,1-.35-2.64,1.9,1.9,0,0,1,.82-.74,6.49,6.49,0,0,1,1.53-.45,9.21,9.21,0,0,0,1.86-.47v-.19a1,1,0,0,0-.27-.79,1.69,1.69,0,0,0-1-.23,1.34,1.34,0,0,0-.8.2A1.4,1.4,0,0,0,155.45,95.17ZM158,96.72a10.34,10.34,0,0,1-1.17.3,3.36,3.36,0,0,0-1,.33.82.82,0,0,0-.38.68,1,1,0,0,0,.3.7,1.08,1.08,0,0,0,.77.29,1.63,1.63,0,0,0,1-.34A1.2,1.2,0,0,0,158,98a3.8,3.8,0,0,0,.07-.93Z" fill="#fff"/><path d="M165.65,100.21v-10h3L170.5,97l1.8-6.83h3v10h-1.88V92.32l-2,7.89h-2l-2-7.89v7.89Z" fill="#fff"/><path d="M177.31,92V90.19h1.92V92Zm0,8.24V93h1.92v7.26Z" fill="#fff"/><path d="M180.51,98.14l1.93-.3a1.43,1.43,0,0,0,.5.86A1.7,1.7,0,0,0,184,99a1.83,1.83,0,0,0,1.12-.28.6.6,0,0,0,.26-.51.49.49,0,0,0-.14-.36,1.48,1.48,0,0,0-.64-.25,10.8,10.8,0,0,1-3-.94,1.88,1.88,0,0,1-.86-1.64,2,2,0,0,1,.74-1.58,3.48,3.48,0,0,1,2.31-.64,4.06,4.06,0,0,1,2.22.48,2.47,2.47,0,0,1,1,1.44l-1.81.33a1.17,1.17,0,0,0-.44-.65,1.64,1.64,0,0,0-.93-.22,2.11,2.11,0,0,0-1.09.21.47.47,0,0,0-.22.39.45.45,0,0,0,.19.35,7.72,7.72,0,0,0,1.8.54,5.24,5.24,0,0,1,2.14.85,1.78,1.78,0,0,1,.6,1.43,2.18,2.18,0,0,1-.83,1.72,3.75,3.75,0,0,1-2.47.71,4.07,4.07,0,0,1-2.35-.6A2.79,2.79,0,0,1,180.51,98.14Z" fill="#fff"/><path d="M189,92V90.19h1.92V92Zm0,8.24V93h1.92v7.26Z" fill="#fff"/><path d="M192.39,96.48a3.94,3.94,0,0,1,.47-1.85,3.22,3.22,0,0,1,1.34-1.37,3.91,3.91,0,0,1,1.93-.47,3.59,3.59,0,0,1,2.7,1.07,3.69,3.69,0,0,1,1.06,2.7,3.73,3.73,0,0,1-1.07,2.73,3.6,3.6,0,0,1-2.67,1.08,4.26,4.26,0,0,1-1.91-.45,3.14,3.14,0,0,1-1.38-1.32A4.46,4.46,0,0,1,192.39,96.48Zm2,.1a2.4,2.4,0,0,0,.51,1.65,1.64,1.64,0,0,0,1.27.58,1.6,1.6,0,0,0,1.26-.58,2.92,2.92,0,0,0,0-3.3,1.6,1.6,0,0,0-1.26-.58,1.64,1.64,0,0,0-1.27.58A2.4,2.4,0,0,0,194.36,96.58Zm.81-4.52.94-2h2.16l-1.88,2Z" fill="#fff"/><path d="M208,100.21h-1.92v-3.7a5.35,5.35,0,0,0-.13-1.53,1,1,0,0,0-.4-.53,1.09,1.09,0,0,0-.66-.19,1.59,1.59,0,0,0-.9.27,1.39,1.39,0,0,0-.54.72,6.16,6.16,0,0,0-.15,1.67v3.29h-1.92V93h1.79V94a3,3,0,0,1,3.55-1,2,2,0,0,1,.8.59,2.14,2.14,0,0,1,.37.81A6,6,0,0,1,208,95.7Z" fill="#fff"/><path d="M218,97.9l1.92.32a3.14,3.14,0,0,1-1.17,1.6,3.38,3.38,0,0,1-2,.55,3.25,3.25,0,0,1-2.8-1.23,4.17,4.17,0,0,1-.72-2.51,4,4,0,0,1,.94-2.82,3.12,3.12,0,0,1,2.39-1,3.18,3.18,0,0,1,2.55,1.07,4.67,4.67,0,0,1,.9,3.27H215.2a1.94,1.94,0,0,0,.46,1.33,1.46,1.46,0,0,0,1.11.48,1.16,1.16,0,0,0,.76-.25A1.51,1.51,0,0,0,218,97.9ZM218.1,96a1.8,1.8,0,0,0-.43-1.27,1.3,1.3,0,0,0-1-.43,1.36,1.36,0,0,0-1,.45,1.82,1.82,0,0,0-.4,1.25Z" fill="#fff"/><path d="M220.88,98.14l1.93-.3a1.43,1.43,0,0,0,.5.86,1.7,1.7,0,0,0,1.05.29,1.89,1.89,0,0,0,1.13-.28.62.62,0,0,0,.25-.51.49.49,0,0,0-.14-.36,1.42,1.42,0,0,0-.64-.25,10.8,10.8,0,0,1-3-.94,1.88,1.88,0,0,1-.86-1.64,2,2,0,0,1,.75-1.58,3.45,3.45,0,0,1,2.31-.64,4,4,0,0,1,2.21.48,2.42,2.42,0,0,1,1,1.44l-1.81.33a1.17,1.17,0,0,0-.44-.65,1.64,1.64,0,0,0-.93-.22,2.13,2.13,0,0,0-1.09.21.46.46,0,0,0-.21.39.42.42,0,0,0,.19.35,7.39,7.39,0,0,0,1.79.54,5.24,5.24,0,0,1,2.14.85,1.76,1.76,0,0,1,.61,1.43,2.19,2.19,0,0,1-.84,1.72,3.73,3.73,0,0,1-2.47.71,4,4,0,0,1-2.34-.6A2.76,2.76,0,0,1,220.88,98.14Z" fill="#fff"/><path d="M232.53,98.14l1.93-.3a1.43,1.43,0,0,0,.5.86,1.7,1.7,0,0,0,1,.29,1.83,1.83,0,0,0,1.12-.28.6.6,0,0,0,.26-.51.49.49,0,0,0-.14-.36,1.48,1.48,0,0,0-.64-.25,10.8,10.8,0,0,1-3-.94A1.88,1.88,0,0,1,232.8,95a2,2,0,0,1,.74-1.58,3.48,3.48,0,0,1,2.31-.64,4.06,4.06,0,0,1,2.22.48,2.51,2.51,0,0,1,1,1.44l-1.81.33a1.17,1.17,0,0,0-.44-.65,1.64,1.64,0,0,0-.93-.22,2.11,2.11,0,0,0-1.09.21.47.47,0,0,0-.22.39.45.45,0,0,0,.19.35,7.72,7.72,0,0,0,1.8.54,5.24,5.24,0,0,1,2.14.85,1.78,1.78,0,0,1,.6,1.43,2.18,2.18,0,0,1-.83,1.72,3.75,3.75,0,0,1-2.47.71,4.07,4.07,0,0,1-2.35-.6A2.79,2.79,0,0,1,232.53,98.14Z" fill="#fff"/><path d="M245.76,100.21V99.12a2.8,2.8,0,0,1-1,.92,3,3,0,0,1-1.37.33,2.62,2.62,0,0,1-1.31-.32,1.83,1.83,0,0,1-.84-.9,4.09,4.09,0,0,1-.26-1.61V93h1.92v3.34a9.09,9.09,0,0,0,.11,1.87,1,1,0,0,0,.38.55,1.24,1.24,0,0,0,.71.2,1.53,1.53,0,0,0,.89-.27,1.37,1.37,0,0,0,.53-.67,7.66,7.66,0,0,0,.14-2V93h1.92v7.26Z" fill="#fff"/><path d="M256,100.21l-3.58-10h2.2l2.53,7.42,2.46-7.42h2.14l-3.59,10Z" fill="#fff"/><path d="M262.47,92V90.19h1.92V92Zm0,8.24V93h1.92v7.26Z" fill="#fff"/><path d="M265.66,98.14l1.93-.3a1.43,1.43,0,0,0,.5.86,1.7,1.7,0,0,0,1.05.29,1.83,1.83,0,0,0,1.12-.28.6.6,0,0,0,.26-.51.49.49,0,0,0-.14-.36,1.42,1.42,0,0,0-.64-.25,10.8,10.8,0,0,1-2.95-.94,1.88,1.88,0,0,1-.86-1.64,2,2,0,0,1,.75-1.58,3.45,3.45,0,0,1,2.31-.64,4,4,0,0,1,2.21.48,2.47,2.47,0,0,1,1,1.44l-1.81.33a1.17,1.17,0,0,0-.44-.65,1.64,1.64,0,0,0-.93-.22,2.11,2.11,0,0,0-1.09.21.47.47,0,0,0-.22.39.43.43,0,0,0,.2.35,7.39,7.39,0,0,0,1.79.54,5.24,5.24,0,0,1,2.14.85,1.79,1.79,0,0,1,.61,1.43,2.19,2.19,0,0,1-.84,1.72,3.73,3.73,0,0,1-2.47.71,4.07,4.07,0,0,1-2.35-.6A2.79,2.79,0,0,1,265.66,98.14Z" fill="#fff"/><path d="M274.11,92V90.19H276V92Zm0,8.24V93H276v7.26Z" fill="#fff"/><path d="M277.54,96.48a3.84,3.84,0,0,1,.48-1.85,3.2,3.2,0,0,1,1.33-1.37,3.91,3.91,0,0,1,1.93-.47,3.59,3.59,0,0,1,2.7,1.07,3.65,3.65,0,0,1,1.06,2.7A3.73,3.73,0,0,1,284,99.29a3.58,3.58,0,0,1-2.67,1.08,4.26,4.26,0,0,1-1.91-.45A3.07,3.07,0,0,1,278,98.6,4.34,4.34,0,0,1,277.54,96.48Zm2,.1a2.35,2.35,0,0,0,.52,1.65,1.66,1.66,0,0,0,2.52,0,2.92,2.92,0,0,0,0-3.3,1.66,1.66,0,0,0-2.52,0A2.35,2.35,0,0,0,279.51,96.58Zm.81-4.52.94-2h2.16l-1.88,2Z" fill="#fff"/><path d="M293.13,100.21h-1.92v-3.7a5.92,5.92,0,0,0-.12-1.53,1.07,1.07,0,0,0-1.07-.72,1.59,1.59,0,0,0-.9.27,1.39,1.39,0,0,0-.54.72,6.16,6.16,0,0,0-.15,1.67v3.29h-1.92V93h1.79V94a3,3,0,0,1,3.55-1,2,2,0,0,1,.8.59,2.14,2.14,0,0,1,.37.81,6,6,0,0,1,.11,1.29Z" fill="#fff"/></g></g></svg>