<svg xmlns="http://www.w3.org/2000/svg" xmlns:xlink="http://www.w3.org/1999/xlink" viewBox="0 0 83.32 82.72"><defs><style>.cls-1,.cls-2,.cls-4{fill:none;stroke:#1d2d4e;stroke-linecap:round;stroke-linejoin:round;}.cls-1{stroke-width:3px;}.cls-2{stroke-width:2px;}.cls-3{fill:#1d2d4e;}.cls-5{fill:url(#radial-gradient);}.cls-6{fill:#fff;}</style><radialGradient id="radial-gradient" cx="45.98" cy="89.58" r="12.33" gradientTransform="translate(-11.73 -59.24) scale(1.09)" gradientUnits="userSpaceOnUse"><stop offset="0" stop-color="#fff" stop-opacity="0"/><stop offset="0.02" stop-color="#e4f3f8" stop-opacity="0.13"/><stop offset="0.04" stop-color="#bce0ee" stop-opacity="0.34"/><stop offset="0.07" stop-color="#98d0e5" stop-opacity="0.52"/><stop offset="0.1" stop-color="#7ac2de" stop-opacity="0.67"/><stop offset="0.14" stop-color="#62b6d8" stop-opacity="0.79"/><stop offset="0.18" stop-color="#4faed3" stop-opacity="0.88"/><stop offset="0.22" stop-color="#42a8d0" stop-opacity="0.95"/><stop offset="0.28" stop-color="#3aa4ce" stop-opacity="0.99"/><stop offset="0.38" stop-color="#38a3cd"/><stop offset="0.49" stop-color="#369fc8"/><stop offset="0.6" stop-color="#3192bb"/><stop offset="0.73" stop-color="#287ca4"/><stop offset="0.86" stop-color="#1b5f85"/><stop offset="0.96" stop-color="#0e4065"/></radialGradient></defs><g id="Layer_2" data-name="Layer 2"><g id="Layer_1-2" data-name="Layer 1"><path class="cls-1" d="M1.71,48.06s.06.68,0-.12C-.37,26,14.07,5.8,35.77,2.18,44.49.72,52.42,1.61,59.28,4.89c17.74,8.48,22.21,28.33,22.54,30,0,.06-.14-.64-.13-.6"/><path class="cls-1" d="M38.75,24s0-.62-.29-9.75a28.16,28.16,0,0,1-6-4.55,28.06,28.06,0,0,1-4.27-5.46"/><path class="cls-2" d="M70.78,45.06A34.42,34.42,0,0,0,38.29,24.39,34.31,34.31,0,0,0,8.7,44.11"/><path class="cls-3" d="M19.14,19.69a41.51,41.51,0,0,0-4,5.62,38.77,38.77,0,0,0-2.93,6.1,25.85,25.85,0,0,0-.92,3.23c-.25,1.08-.53,2.16-.86,3.23a65.44,65.44,0,0,1-2.31,6.56.17.17,0,0,1-.21.08.15.15,0,0,1-.09-.1,17.52,17.52,0,0,1-.31-7.2A21.47,21.47,0,0,1,10,30.45a32.86,32.86,0,0,1,3.9-6,35,35,0,0,1,5-5,.17.17,0,0,1,.22,0A.15.15,0,0,1,19.14,19.69Z"/><path class="cls-2" d="M51.89,81.72a4.58,4.58,0,0,1-2.55-1.49,4.39,4.39,0,0,1-1-2.26c-.36-3.78-.65-7.74-.84-11.88s-.25-7.84-.23-11.52c-.06-.27-.63-2.64-2.62-3.33a3.33,3.33,0,0,0-1.3-.18,33,33,0,0,1-11.28,1.25,31.9,31.9,0,0,1-11.12-2.73,30.18,30.18,0,0,1-7.43-4.93"/><path class="cls-4" d="M44.14,13.46a5.13,5.13,0,0,0-1.43,3,5.07,5.07,0,0,0,.17,1.93,1.51,1.51,0,0,0,1.57,1.12,7,7,0,0,1,3.35.57,1.62,1.62,0,0,1,.46.33A13.16,13.16,0,0,0,50.2,22.1a13.59,13.59,0,0,0,2.64,1.44,1.48,1.48,0,0,0,.86.06,14,14,0,0,1,6.39.19c.38.11.73.23,1.07.35a1.56,1.56,0,0,1,.71.56c.24.36.54.78.89,1.23a25.65,25.65,0,0,0,3.74,3.83A25.1,25.1,0,0,0,74.08,34a4,4,0,0,1,2,1c1.91,1.79.84,5.46.44,6.89-1,3.67-2.75,5.22-5.88,9.6-2,2.79-.83,1.52-5.52,8.73-5,7.64-5.81,8.36-7.31,11.58a61.28,61.28,0,0,0-3,6.76c-.12.88-.23,2.55-1.31,3.14a2.32,2.32,0,0,1-1.69.09"/><circle class="cls-5" cx="38.46" cy="38.54" r="13.46"/><path d="M38.33,36a3.29,3.29,0,0,1,.42-1.6,4.21,4.21,0,0,0-1.37-.25,4.82,4.82,0,0,0-4.59,5,4.82,4.82,0,0,0,4.59,5,4.83,4.83,0,0,0,4.6-5s0-.07,0-.11a2.6,2.6,0,0,1-.74.11A3,3,0,0,1,38.33,36Z"/><path class="cls-6" d="M44.13,36a3,3,0,0,0-2.9-3.16,2.84,2.84,0,0,0-2.48,1.56,3.29,3.29,0,0,0-.42,1.6,3,3,0,0,0,2.9,3.16,2.6,2.6,0,0,0,.74-.11A3.12,3.12,0,0,0,44.13,36Z"/></g></g></svg>